<svg xmlns="http://www.w3.org/2000/svg" width="634.325" height="137.91" viewBox="0 0 634.325 137.91">
  <defs>
    <style>
      .cls-1, .cls-3 {
        fill: #56e6ca;
      }

      .cls-2 {
        fill: #fff;
        font-size: 68px;
        letter-spacing: 0.025em;
      }

      .cls-2, .cls-3 {
        font-family: Roboto-Bold, Roboto;
        font-weight: 700;
      }

      .cls-3 {
        font-size: 19px;
        letter-spacing: 0.08em;
      }
    </style>
  </defs>
  <g id="Brand_Logo" data-name="Brand Logo" transform="translate(-84 -49.111)">
    <g id="Group_4" data-name="Group 4" transform="translate(84 49.111)">
      <path id="Union_1" data-name="Union 1" class="cls-1" d="M10.434,46.075A25.5,25.5,0,0,1,25.5,0h24.25a25.5,25.5,0,0,1,0,51H25.5a25.673,25.673,0,0,1-4.422-.382L4.518,60.586S9.788,53.389,10.434,46.075Z" transform="translate(14.109)"/>
      <path id="Union_2" data-name="Union 2" class="cls-1" d="M25.5,60.586A25.5,25.5,0,0,1,10.434,14.511C9.788,7.2,4.518,0,4.518,0l16.56,9.969A25.673,25.673,0,0,1,25.5,9.587h24.25a25.5,25.5,0,0,1,0,51Z" transform="translate(169.31 106.049) rotate(180)"/>
      <path id="Union_3" data-name="Union 3" class="cls-1" d="M10.434,46.075A25.5,25.5,0,0,1,25.5,0h24.25a25.5,25.5,0,0,1,0,51H25.5a25.673,25.673,0,0,1-4.422-.382L4.518,60.586S9.788,53.389,10.434,46.075Z" transform="translate(0 77.324)"/>
    </g>
    <rect id="Rectangle_30" data-name="Rectangle 30" class="cls-1" width="204.258" height="76.957" transform="translate(279 79.587)"/>
    <text id="Fokus_Coding" data-name="Fokus Coding" class="cls-2" transform="translate(281.325 143.681)"><tspan x="0" y="0">Fokus</tspan><tspan class="cls-1" y="0" xml:space="preserve"> Coding</tspan></text>
    <text id="Forum_Diskusi" data-name="Forum Diskusi" class="cls-3" transform="translate(279 177)"><tspan x="0" y="0">Forum Diskusi</tspan></text>
  </g>
</svg>
